<?xml version="1.0" encoding="UTF-8"?>
<svg width="24px" height="31px" viewBox="0 0 24 31" version="1.1" xmlns="http://www.w3.org/2000/svg" xmlns:xlink="http://www.w3.org/1999/xlink">
    <!-- Generator: Sketch 39 (31667) - http://www.bohemiancoding.com/sketch -->
    <title>certificate icon</title>
    <desc>Created with Sketch.</desc>
    <defs></defs>
    <g id="Welcome" stroke="none" stroke-width="1" fill="none" fill-rule="evenodd">
        <g id="Desktop" transform="translate(-122.000000, -858.000000)" fill="#EC1C24">
            <g id="kitchen-intro" transform="translate(62.000000, 278.000000)">
                <g id="certificate-" transform="translate(29.000000, 580.000000)">
                    <path d="M42.7715455,5.17646874 C39.1401981,5.17646874 36.1962734,8.10877291 36.1962734,11.7264583 C36.1962734,15.3438428 39.1401981,18.2764478 42.7715455,18.2764478 C46.4028928,18.2764478 49.3468176,15.3438428 49.3468176,11.7264583 C49.3468176,8.10877291 46.4028928,5.17646874 42.7715455,5.17646874 M51.4566119,18.0699207 C51.8823366,19.7635636 50.8397742,20.8022175 49.1394933,20.3781297 C48.6116671,20.2464298 48.0424566,20.2405119 47.4815029,20.3395125 L47.4815029,31 L42.8863341,26.957625 L38.0614874,31 L38.0614874,20.3394122 C37.5005337,20.2405119 36.9314239,20.2464298 36.4035977,20.3781297 C34.7033168,20.8022175 33.6607544,19.7635636 34.0864791,18.0699207 C34.5122038,16.3762778 33.6306475,14.2561399 32.1274204,13.3585141 C30.6241932,12.4608884 30.6241932,10.9920281 32.1274204,10.0943021 C33.6306475,9.19667641 34.5123045,7.07643815 34.0864791,5.38289557 C33.6607544,3.6892527 34.7034175,2.65049844 36.4035977,3.07468652 C38.1037779,3.4987743 40.2319988,2.62070798 41.13319,1.12316056 C42.0342805,-0.374386854 43.5088105,-0.374386854 44.409901,1.12316056 C45.3110922,2.62070798 47.439313,3.4987743 49.1394933,3.07468652 C50.8397742,2.65049844 51.8823366,3.6892527 51.4566119,5.38289557 C51.0308872,7.07643815 51.9124434,9.19667641 53.4156706,10.0943021 C54.9188978,10.9920281 54.9188978,12.4608884 53.4156706,13.3585141 C51.9124434,14.2561399 51.0308872,16.3762778 51.4566119,18.0699207 Z" id="certificate-icon"></path>
                </g>
            </g>
        </g>
    </g>
</svg>