<?xml version="1.0" encoding="UTF-8"?>
<svg width="35px" height="28px" viewBox="0 0 35 28" version="1.1" xmlns="http://www.w3.org/2000/svg" xmlns:xlink="http://www.w3.org/1999/xlink">
    <!-- Generator: Sketch 39 (31667) - http://www.bohemiancoding.com/sketch -->
    <title>35x28px checkout icon</title>
    <desc>Created with Sketch.</desc>
    <defs></defs>
    <g id="Welcome" stroke="none" stroke-width="1" fill="none" fill-rule="evenodd">
        <g id="Desktop-HD" transform="translate(-656.000000, -2284.000000)" fill="#FFFFFF">
            <g id="1440x60px-check-out-bar" transform="translate(0.000000, 2267.000000)">
                <path d="M687.388356,36.3847752 C687.712499,36.3847752 687.999504,36.1679114 688.083062,35.8520359 L690.974104,25.0814014 C691.080267,24.7009879 690.850179,24.30454 690.463872,24.2039248 C690.07797,24.1049131 689.681975,24.329794 689.581059,24.7134144 L689.163267,26.2699433 L662.103247,22.7824849 L661.783546,19.0893867 C661.755289,18.8051789 661.565163,18.5630611 661.289057,18.4704631 L656.952899,17.0361957 C656.568207,16.9123308 656.162928,17.116768 656.038196,17.4907679 C655.909831,17.8651686 656.115699,18.2720387 656.495547,18.3979079 L660.384043,19.6854615 L661.72784,35.056735 C660.508775,35.3926534 659.616274,36.5042307 659.616274,37.8218486 C659.616274,39.0336401 660.388887,40.1215668 661.538118,40.5276353 C661.755289,40.6025956 661.976901,40.6422804 662.199723,40.6675344 C661.941782,41.0964517 661.783546,41.5903079 661.783546,42.1278575 C661.783546,43.7124464 663.081325,45 664.679027,45 C666.269867,45 667.566436,43.7124464 667.566436,42.1278575 C667.566436,41.6031354 667.414658,41.1172963 667.166001,40.693991 L680.558362,40.693991 C680.308494,41.1172963 680.154698,41.6031354 680.154698,42.1278575 C680.154698,43.7124464 681.454496,45 683.050583,45 C684.644652,45 685.937992,43.7124464 685.937992,42.1278575 C685.937992,41.6031354 685.786214,41.1172963 685.537153,40.693991 L687.388356,40.693991 C687.784351,40.693991 688.110108,40.3717018 688.110108,39.9756548 C688.110108,39.5764009 687.784351,39.2573185 687.388356,39.2573185 L662.506911,39.2573185 C662.340602,39.2573185 662.180751,39.2272542 662.022515,39.1755436 C661.449312,38.9711064 661.059776,38.4287465 661.059776,37.8218486 C661.059776,37.0277503 661.710482,36.3847752 662.506911,36.3847752 L687.388356,36.3847752 Z" id="35x28px-checkout-icon"></path>
            </g>
        </g>
    </g>
</svg>