<?xml version="1.0" encoding="UTF-8"?>
<svg width="33px" height="27px" viewBox="0 0 33 27" version="1.1" xmlns="http://www.w3.org/2000/svg" xmlns:xlink="http://www.w3.org/1999/xlink">
    <!-- Generator: Sketch 39 (31667) - http://www.bohemiancoding.com/sketch -->
    <title>bulk buy icon</title>
    <desc>Created with Sketch.</desc>
    <defs></defs>
    <g id="Welcome" stroke="none" stroke-width="1" fill="none" fill-rule="evenodd">
        <g id="Desktop" transform="translate(-111.000000, -643.000000)" fill="#EC1C24">
            <g id="kitchen-intro" transform="translate(62.000000, 278.000000)">
                <g id="bulk-buy" transform="translate(29.000000, 365.000000)">
                    <g id="bulk-buy-icon" transform="translate(20.000000, 0.000000)">
                        <path d="M29.5285911,18.5074959 C29.8335278,18.5074959 30.1035278,18.3004465 30.1821354,17.9988663 L32.9018822,7.71566873 C33.0017556,7.3524712 32.7852999,6.97396503 32.4218822,6.8779033 C32.0588443,6.78337244 31.6863126,6.99807614 31.5913759,7.3643354 L31.1983379,8.85042182 L5.74162906,5.52079219 L5.44086957,1.99482923 C5.41428729,1.72348355 5.23542653,1.49232305 4.9756797,1.40391565 L0.896439189,0.0345576213 C0.534540455,-0.083701638 0.153274632,0.111483547 0.03593286,0.468557621 C-0.0848266336,0.826014411 0.108844252,1.2144712 0.466186025,1.33464404 L4.12428729,2.56392799 L5.38846451,17.2395576 C4.24162906,17.5602737 3.40200881,18.6215453 3.40200881,19.8795329 C3.40200881,21.0364835 4.12884425,22.0751749 5.20998349,22.4628663 C5.41428729,22.5344342 5.6227683,22.5723231 5.83238856,22.5964342 C5.58973033,23.0059403 5.44086957,23.4774465 5.44086957,23.9906687 C5.44086957,25.5035453 6.66175564,26.7328292 8.16479362,26.7328292 C9.6613759,26.7328292 10.8811227,25.5035453 10.8811227,23.9906687 C10.8811227,23.4896934 10.7383379,23.0258416 10.5044139,22.6216934 L23.1032746,22.6216934 C22.8682113,23.0258416 22.7235278,23.4896934 22.7235278,23.9906687 C22.7235278,25.5035453 23.9463126,26.7328292 25.4478316,26.7328292 C26.9474518,26.7328292 28.1641607,25.5035453 28.1641607,23.9906687 C28.1641607,23.4896934 28.0213759,23.0258416 27.7870721,22.6216934 L29.5285911,22.6216934 C29.9011227,22.6216934 30.2075784,22.3139897 30.2075784,21.9358663 C30.2075784,21.5546811 29.9011227,21.2500391 29.5285911,21.2500391 L6.1213759,21.2500391 C5.9649202,21.2500391 5.81454045,21.2213354 5.6656797,21.171965 C5.12643919,20.9767798 4.75998349,20.458965 4.75998349,19.8795329 C4.75998349,19.1213724 5.37213539,18.5074959 6.1213759,18.5074959 L29.5285911,18.5074959 Z" id="Fill-1"></path>
                    </g>
                </g>
            </g>
        </g>
    </g>
</svg>