<?xml version="1.0" encoding="UTF-8"?>
<svg width="46px" height="46px" viewBox="0 0 46 46" version="1.1" xmlns="http://www.w3.org/2000/svg" xmlns:xlink="http://www.w3.org/1999/xlink">
    <title>IG icon</title>
    <desc>Created with Sketch.</desc>
    <defs></defs>
    <g id="Page-1" stroke="none" stroke-width="1" fill="none" fill-rule="evenodd">
        <g id="Desktop-Copy" transform="translate(-133.000000, -1573.000000)" fill="#EC1C24">
            <g id="social-media-info" transform="translate(102.000000, 1419.000000)">
                <g id="IG-icon" transform="translate(30.000000, 154.000000)">
                    <path d="M31.8955,29.0156 C31.8955,30.0526 31.0525,30.8956 30.0155,30.8956 L17.9835,30.8956 C16.9465,30.8956 16.1045,30.0526 16.1045,29.0156 L16.1045,20.9876 L19.0325,20.9876 C18.7795,21.6086 18.6365,22.2876 18.6365,22.9986 C18.6365,25.9556 21.0425,28.3626 23.9995,28.3626 C26.9575,28.3626 29.3625,25.9556 29.3625,22.9986 C29.3625,22.2876 29.2195,21.6086 28.9665,20.9876 L31.8955,20.9876 L31.8955,29.0156 Z M21.2015,20.9876 C21.8285,20.1176 22.8475,19.5466 23.9995,19.5466 C25.1525,19.5466 26.1705,20.1176 26.7975,20.9876 C27.2085,21.5546 27.4525,22.2476 27.4525,22.9986 C27.4525,24.9036 25.9025,26.4516 23.9995,26.4516 C22.0955,26.4516 20.5475,24.9036 20.5475,22.9986 C20.5475,22.2476 20.7915,21.5546 21.2015,20.9876 L21.2015,20.9876 Z M31.1035,15.4526 L31.5375,15.4526 L31.5375,15.8836 L31.5375,18.7766 L28.2225,18.7866 L28.2105,15.4616 L31.1035,15.4526 Z M30.0155,13.1936 L17.9835,13.1936 C15.8925,13.1936 14.1935,14.8936 14.1935,16.9836 L14.1935,20.9876 L14.1935,29.0156 C14.1935,31.1066 15.8925,32.8066 17.9835,32.8066 L30.0155,32.8066 C32.1055,32.8066 33.8065,31.1066 33.8065,29.0156 L33.8065,20.9876 L33.8065,16.9836 C33.8065,14.8936 32.1055,13.1936 30.0155,13.1936 L30.0155,13.1936 Z M15.2145,45.9996 C9.9985,45.9996 6.9985,45.9996 3.9995,43.0016 C0.9995,40.0016 0.9995,37.0016 0.9995,31.7856 L0.9995,14.2166 C0.9995,8.9976 0.9995,5.9996 3.9995,2.9996 C6.9985,-0.0004 9.9985,-0.0004 15.2145,-0.0004 L32.7845,-0.0004 C38.0005,-0.0004 40.9995,-0.0004 43.9995,2.9996 C46.9995,5.9996 46.9995,8.9976 46.9995,14.2166 L46.9995,31.7856 C46.9995,37.0016 46.9995,40.0016 43.9995,43.0016 C40.9995,45.9996 38.0005,45.9996 32.7845,45.9996 L15.2145,45.9996 Z" id="Fill-1"></path>
                </g>
            </g>
        </g>
    </g>
</svg>