<?xml version="1.0" encoding="UTF-8"?>
<svg width="43px" height="29px" viewBox="0 0 43 29" version="1.1" xmlns="http://www.w3.org/2000/svg" xmlns:xlink="http://www.w3.org/1999/xlink">
    <!-- Generator: Sketch 39 (31667) - http://www.bohemiancoding.com/sketch -->
    <title>delivery icon</title>
    <desc>Created with Sketch.</desc>
    <defs></defs>
    <g id="Welcome" stroke="none" stroke-width="1" fill="none" fill-rule="evenodd">
        <g id="Desktop" transform="translate(-105.000000, -757.000000)" fill="#EC1C24">
            <g id="kitchen-intro" transform="translate(62.000000, 278.000000)">
                <g id="delivery" transform="translate(29.000000, 479.000000)">
                    <g id="delivery-icon" transform="translate(14.000000, 0.000000)">
                        <path d="M38.2067376,22.8257943 C37.801279,24.2827197 36.4699571,25.3529381 34.885879,25.3529381 C33.301801,25.3529381 31.970479,24.2827197 31.5650205,22.8257943 L38.2067376,22.8257943 Z M6.4639278,25.3529381 C4.55829366,25.3529381 3.01344,23.8061102 3.01344,21.8977816 C3.01344,19.989453 4.55829366,18.4426251 6.4639278,18.4426251 C8.36956195,18.4426251 9.91441561,19.989453 9.91441561,21.8977816 C9.91441561,23.8061102 8.36956195,25.3529381 6.4639278,25.3529381 L6.4639278,25.3529381 Z M42.8566107,9.99493657 L23.1399571,9.99493657 L23.1399571,11.1502263 C23.1399571,11.1502263 25.5171229,12.3405948 25.5171229,16.4714908 C25.5171229,19.93757 21.5667863,19.7974649 18.1058107,19.7974649 C14.6448351,19.7974649 13.351479,12.0255158 13.246601,11.360489 C13.1637473,10.8355674 12.8205863,10.706385 12.6792107,10.6748771 L16.4512546,2.5336554 C16.7266644,1.93941637 16.4170644,1.45335448 15.7634644,1.45335448 C15.5801376,1.45335448 15.3890498,1.49473486 15.2021571,1.56279192 C14.6572107,0.787907594 12.6766937,0.210052678 11.8479473,0.210052678 L11.8479473,3.71121071 C12.2810937,3.71121071 13.0295034,3.55304104 13.7229571,3.29173551 L10.3047717,10.6681554 C8.15120585,10.7416738 8.28209366,13.8464625 8.28209366,13.8464625 C5.53785463,13.8464625 0.95804,14.5287136 0.11901561,17.154372 C-0.259594146,18.3392792 0.292693659,18.4856859 1.3913961,18.290757 C0.667947317,19.3090924 0.241303415,20.5532344 0.241303415,21.8977816 C0.241303415,25.3392847 3.0272839,28.1292043 6.4639278,28.1292043 C9.90057171,28.1292043 12.6865522,25.3392847 12.6865522,21.8977816 C12.6865522,21.3008119 12.6009717,20.7244273 12.4447034,20.1778703 C13.687718,21.5190566 13.5958449,22.8257943 13.5958449,22.8257943 L28.7322644,22.8257943 C29.1798839,25.827027 31.7642888,28.1292043 34.885879,28.1292043 C38.0074693,28.1292043 40.5918741,25.827027 41.0394937,22.8257943 L42.8566107,22.8257943 C42.8566107,19.4317632 42.0767376,16.9405384 41.1252839,15.1595018 C41.7765766,15.3895094 42.4532498,15.5266738 42.8566107,15.5266738 L42.8566107,12.0255158 C42.124562,12.0255158 40.4926595,12.4764989 39.7467668,13.1161093 C38.6654741,11.8402493 37.7175863,11.3247801 37.7175863,11.3247801 L42.8566107,11.3247801 L42.8566107,9.99493657 Z" id="Fill-1"></path>
                        <polygon id="Fill-4" points="33.9421024 9.32969974 42.8565268 9.32969974 42.8565268 0.402670983 33.9421024 0.402670983"></polygon>
                    </g>
                </g>
            </g>
        </g>
    </g>
</svg>